<svg width="28" height="27" viewBox="0 0 28 27" fill="none" xmlns="http://www.w3.org/2000/svg">
<g filter="url(#filter0_d)">
<path d="M7.41986 13.3765C8.57052 14.095 9.93723 14.5141 11.4057 14.5141C16.1883 14.5141 18.8036 10.6564 18.8036 7.31068C18.8036 7.20103 18.8011 7.09181 18.7961 6.98318C19.3042 6.62625 19.7451 6.18036 20.0936 5.67265C19.6273 5.87401 19.1262 6.01018 18.6002 6.07137C19.1371 5.75797 19.5494 5.26193 19.7435 4.6707C19.241 4.96075 18.6846 5.17155 18.0924 5.28501C17.6181 4.79296 16.9423 4.4856 16.1944 4.4856C14.7585 4.4856 13.5942 5.61913 13.5942 7.01722C13.5942 7.21564 13.6173 7.40885 13.6617 7.59423C11.5007 7.48854 9.58478 6.48071 8.3024 4.94888C8.07853 5.32289 7.95031 5.75773 7.95031 6.22176C7.95031 7.10003 8.40922 7.875 9.10696 8.329C8.68068 8.31584 8.27974 8.20188 7.92926 8.01231C7.92902 8.02293 7.92902 8.0335 7.92902 8.0442C7.92902 9.27081 8.82536 10.294 10.0148 10.5267C9.79661 10.5844 9.56687 10.6155 9.32973 10.6155C9.1622 10.6155 8.99929 10.5996 8.84045 10.5699C9.17137 11.5758 10.1317 12.3078 11.2695 12.3281C10.3796 13.0073 9.25844 13.412 8.04023 13.412C7.83021 13.4121 7.62328 13.4001 7.41986 13.3765Z" fill="#777"/>
<path d="M4 0V19H23.5135V0H4ZM22.3065 17.8247H5.20702V1.17526H22.3065V17.8247Z" fill="#777"/>
</g>
<defs>
<filter id="filter0_d" x="0" y="0" width="27.5135" height="27" filterUnits="userSpaceOnUse" color-interpolation-filters="sRGB">
<feFlood flood-opacity="0" result="BackgroundImageFix"/>
<feColorMatrix in="SourceAlpha" type="matrix" values="0 0 0 0 0 0 0 0 0 0 0 0 0 0 0 0 0 0 127 0"/>
<feOffset dy="4"/>
<feGaussianBlur stdDeviation="2"/>
<feColorMatrix type="matrix" values="0 0 0 0 0 0 0 0 0 0 0 0 0 0 0 0 0 0 0.25 0"/>
<feBlend mode="normal" in2="BackgroundImageFix" result="effect1_dropShadow"/>
<feBlend mode="normal" in="SourceGraphic" in2="effect1_dropShadow" result="shape"/>
</filter>
</defs>
</svg>
